<?xml version="1.0" encoding="utf-8"?>
<!-- Generator: Adobe Illustrator 16.0.0, SVG Export Plug-In . SVG Version: 6.00 Build 0)  -->
<!DOCTYPE svg PUBLIC "-//W3C//DTD SVG 1.1//EN" "http://www.w3.org/Graphics/SVG/1.1/DTD/svg11.dtd">
<svg version="1.1" id="Layer_1" xmlns="http://www.w3.org/2000/svg" xmlns:xlink="http://www.w3.org/1999/xlink" x="0px" y="0px"
	 width="288px" height="94.193px" viewBox="0 0 288 94.193" enable-background="new 0 0 288 94.193" xml:space="preserve">
<image overflow="visible" width="2448" height="3264" xlink:href="../../../Pool Project/fr_1211.jpg"  transform="matrix(1 0 0 1 -3319.9473 -1346.2554)">
</image>
<g>
	<path fill="#4BB3BD" d="M75.837,24.609h-5.923v18.743h5.305c5.304,0,7.691-3.625,7.691-9.195
		C82.91,27.527,80.257,24.609,75.837,24.609z"/>
	<polygon fill="#4BB3BD" points="162.477,27.615 157.083,54.05 167.87,54.05 162.653,27.615 	"/>
	<path fill="#4BB3BD" d="M270,0H18C8.059,0,0,8.059,0,18v58.193c0,9.941,8.059,18,18,18h252c9.941,0,18-8.059,18-18V18
		C288,8.059,279.941,0,270,0z M29.688,80.838c-15.56,0-17.505-13.792-17.505-16.886c0-4.244,0.973-8.045,6.012-8.045
		c3.713,0,5.481,2.034,5.835,7.692c0.265,4.332,2.298,7.868,7.073,7.868c4.686,0,6.896-3.359,6.896-7.426
		c0-4.332-1.68-6.365-6.012-9.46l-11.405-8.045c-6.188-4.42-8.045-9.283-8.045-15.737c0-11.228,8.664-16.621,18.743-16.621
		c13.261,0,17.593,9.46,17.593,16.002c0,3.979-2.476,6.012-5.835,6.012c-4.774,0-5.481-2.21-6.012-6.719
		c-0.53-4.42-3.006-5.923-6.366-5.923c-3.625,0-6.277,2.298-6.277,6.1c0,2.917,0.53,5.57,6.365,9.46l8.753,5.747
		c6.454,4.244,10.344,8.841,10.344,18.124C49.845,73.942,43.302,80.838,29.688,80.838z M80.169,52.282H69.914v22.102
		c0,3.713-2.741,6.101-5.923,6.101c-3.183,0-5.924-2.387-5.924-6.101V22.046c0-4.421,2.034-6.366,6.366-6.366h14.764
		c9.902,0,16.091,5.216,16.091,17.947C95.287,43.706,90.513,52.282,80.169,52.282z M131.888,79.335h-23.251
		c-4.332,0-6.365-1.945-6.365-6.365V20.631c0-3.713,2.74-6.1,5.923-6.1c3.183,0,5.923,2.387,5.923,6.1v48.095h17.77
		c4.421,0,6.189,2.299,6.189,5.305S136.309,79.335,131.888,79.335z M178.744,80.484c-4.333,0-6.012-1.768-7.162-7.692l-1.856-9.371
		h-14.587l-2.387,11.493c-0.795,3.979-2.387,5.57-6.188,5.57c-3.537,0-5.57-2.034-5.57-5.128c0-1.061,0.265-3.094,0.707-4.862
		l11.316-47.653c1.503-6.454,3.095-8.311,9.725-8.311c6.012,0,8.222,1.857,9.725,8.311l11.228,47.299
		c0.442,1.945,0.884,3.89,0.884,4.862C184.579,78.981,181.662,80.484,178.744,80.484z M206.504,80.838
		c-15.56,0-17.505-13.792-17.505-16.886c0-4.244,0.973-8.045,6.012-8.045c3.713,0,5.481,2.034,5.835,7.692
		c0.265,4.332,2.298,7.868,7.073,7.868c4.686,0,6.896-3.359,6.896-7.426c0-4.332-1.68-6.365-6.012-9.46l-11.405-8.045
		c-6.188-4.42-8.045-9.283-8.045-15.737c0-11.228,8.664-16.621,18.743-16.621c13.261,0,17.593,9.46,17.593,16.002
		c0,3.979-2.475,6.012-5.835,6.012c-4.774,0-5.481-2.21-6.012-6.719c-0.531-4.42-3.006-5.923-6.366-5.923
		c-3.625,0-6.277,2.298-6.277,6.1c0,2.917,0.53,5.57,6.365,9.46l8.753,5.747c6.454,4.244,10.344,8.841,10.344,18.124
		C226.662,73.942,220.119,80.838,206.504,80.838z M274.137,74.384c0,3.713-2.741,6.101-5.923,6.101s-5.923-2.387-5.923-6.101V50.337
		h-15.56v24.047c0,3.713-2.741,6.101-5.923,6.101c-3.183,0-5.923-2.387-5.923-6.101V20.631c0-3.713,2.74-6.1,5.923-6.1
		c3.183,0,5.923,2.387,5.923,6.1v20.334h15.56V20.631c0-3.713,2.741-6.1,5.923-6.1s5.923,2.387,5.923,6.1V74.384z"/>
</g>
</svg>
